<svg width="30" height="30" viewBox="0 0 30 30" fill="none" xmlns="http://www.w3.org/2000/svg">
<path fill-rule="evenodd" clip-rule="evenodd" d="M29.81 1.03845V29.8846H0.963867V1.03845H29.81ZM16.4643 8.53845C14.3226 8.53845 12.5499 9.22337 11.1465 10.593C9.74261 11.963 9.04079 13.6752 9.04079 15.7297C9.04079 17.7845 9.72949 19.4838 11.1069 20.8272C12.4838 22.1705 14.2171 22.8423 16.3061 22.8423C18.3949 22.8423 20.1711 22.032 21.6342 20.4121L20.1315 18.8711C19.4989 19.4638 18.8925 19.8955 18.3128 20.1651C17.7327 20.4355 17.0409 20.5702 16.2369 20.5702C14.9452 20.5702 13.828 20.0993 12.886 19.1577C11.9435 18.216 11.4726 17.0435 11.4726 15.641C11.4726 14.2381 11.9471 13.0857 12.8958 12.1836C13.8447 11.2815 15.0177 10.8302 16.4149 10.8302C17.2057 10.8302 17.8944 10.9553 18.4808 11.2054C19.0671 11.4557 19.6897 11.897 20.3491 12.529L21.8319 10.9091C20.3951 9.32853 18.606 8.53845 16.4643 8.53845ZM8.18411 5.97498H5.7986V8.35894H8.18411V5.97498Z" fill="black"/>
</svg>
